@startuml BinMon

class MtpViewModelBase {
    - string _dp
    - bool _invalid

    # MtpViewModelBase(const string &dp)
    + bool getInvalid()
    + string getDp()
}

class BinMon
{
    - bool _value
    - string _valueStateFalseText
    - string _valueStateTrueText
    - bool _flutterEnabled
    - float _flutterTime
    - int _flutterCount
    - bool _flutterActive

    + BinMon(const string &dp)
    + WQC getWQC()
    + OSLevel getOSLevel()
    + bool getValue()
    + string getValueStateTrueText()
    + string getValueStateFalseText()
    + bool getFlutterEnabled()
    + float getFlutterTime()
    + int getFlutterCount()
    + bool getFlutterActive()
    + void setFlutterCount(const int &count)
    + void setFlutterTime(const float &time)

    ..events..
    + void valueChanged(const bool &value)
    + void flutterActiveChanged(const bool &active)
}

MtpViewModelBase <|-- BinMon
WQC "1" --* "1" BinMon : _wqc
OSLevel "1" --* "1" BinMon : _osLevel
@enduml